<?xml version="1.0" encoding="UTF-8" standalone="no"?>
<!-- Created with Inkscape (http://www.inkscape.org/) -->

<svg
   width="210mm"
   height="297mm"
   viewBox="0 0 210 297"
   version="1.1"
   id="svg5"
   inkscape:version="1.2 (dc2aedaf03, 2022-05-15)"
   sodipodi:docname="Base Texture.svg"
   xmlns:inkscape="http://www.inkscape.org/namespaces/inkscape"
   xmlns:sodipodi="http://sodipodi.sourceforge.net/DTD/sodipodi-0.dtd"
   xmlns="http://www.w3.org/2000/svg"
   xmlns:svg="http://www.w3.org/2000/svg">
  <sodipodi:namedview
     id="namedview7"
     pagecolor="#505050"
     bordercolor="#ffffff"
     borderopacity="1"
     inkscape:showpageshadow="0"
     inkscape:pageopacity="0"
     inkscape:pagecheckerboard="1"
     inkscape:deskcolor="#505050"
     inkscape:document-units="mm"
     showgrid="false"
     inkscape:zoom="0.73851712"
     inkscape:cx="542.97997"
     inkscape:cy="677.03238"
     inkscape:window-width="1920"
     inkscape:window-height="1009"
     inkscape:window-x="-8"
     inkscape:window-y="-8"
     inkscape:window-maximized="1"
     inkscape:current-layer="layer1" />
  <defs
     id="defs2" />
  <g
     inkscape:label="Layer 1"
     inkscape:groupmode="layer"
     id="layer1">
    <rect
       style="fill:#000000;stroke-width:1.25;fill-opacity:1"
       id="rect184"
       width="210"
       height="80.96743"
       x="0"
       y="127.54162" />
    <g
       id="g5235"
       transform="matrix(0.81370001,0,0,0.81370001,20.327838,31.303118)">
      <path
         style="fill:#46028d;fill-opacity:1;stroke-width:1.80537"
         d="M 104.0582,168.02533 C 77.714604,24.233246 129.67001,0.8167168 129.67001,0.8167168 L 169.1854,32.282676 c 0,0 -63.29778,42.80833 -65.1272,135.742654 z"
         id="path4911" />
      <path
         style="fill:#46028d;fill-opacity:1;stroke-width:1.80537"
         d="M 104.0582,168.02533 C 153.14003,30.325926 209.84299,36.024326 209.84299,36.024326 l 18.48835,47.00802 c 0,0 -76.22165,5.4242 -124.27314,84.992984 z"
         id="path4911-0" />
      <path
         style="fill:#46028d;fill-opacity:1;stroke-width:1.80537"
         d="M 104.0582,168.02533 C 215.41401,73.315066 261.67102,106.6015 261.67102,106.6015 l -7.49262,49.95431 c 0,0 -68.72201,-33.41333 -150.1202,11.46952 z"
         id="path4911-0-4" />
      <path
         style="fill:#46028d;fill-opacity:1;stroke-width:1.80537"
         d="m 104.0582,168.02533 c 143.79211,-26.3436 167.20863,25.6118 167.20863,25.6118 l -31.46596,39.5154 c 0,0 -42.80834,-63.29779 -135.74267,-65.1272 z"
         id="path4911-0-4-1" />
      <path
         style="fill:#46028d;fill-opacity:1;stroke-width:1.80537"
         d="m 104.0582,168.02533 c 137.69942,49.08183 132.00102,105.78478 132.00102,105.78478 l -47.00802,18.48836 c 0,0 -5.42421,-76.22166 -84.993,-124.27314 z"
         id="path4911-0-4-1-3" />
      <path
         style="fill:#46028d;fill-opacity:1;stroke-width:1.80537"
         d="m 104.0582,168.02533 c 94.71029,111.35583 61.42386,157.61282 61.42386,157.61282 l -49.95433,-7.49262 c 0,0 33.41333,-68.722 -11.46953,-150.1202 z"
         id="path4911-0-4-1-3-9" />
      <path
         style="fill:#46028d;fill-opacity:1;stroke-width:1.80537"
         d="M 104.0582,168.02533 C 130.4018,311.81742 78.446404,335.23395 78.446404,335.23395 L 38.931008,303.768 c 0,0 63.297782,-42.80833 65.127192,-135.74267 z"
         id="path4911-7" />
      <path
         style="fill:#46028d;fill-opacity:1;stroke-width:1.80537"
         d="M 104.0582,168.02533 C 54.976375,305.72474 -1.7265819,300.02634 -1.7265819,300.02634 L -20.214932,253.01833 c 0,0 76.221649,-5.4242 124.273132,-84.993 z"
         id="path4911-0-5" />
      <path
         style="fill:#46028d;fill-opacity:1;stroke-width:1.80537"
         d="M 104.0582,168.02533 C -7.2976019,262.73561 -53.554612,229.44916 -53.554612,229.44916 l 7.49262,-49.9543 c 0,0 68.72201,33.41333 150.120192,-11.46953 z"
         id="path4911-0-4-8" />
      <path
         style="fill:#46028d;fill-opacity:1;stroke-width:1.80537"
         d="M 104.0582,168.02533 C -39.733902,194.36893 -63.150422,142.41354 -63.150422,142.41354 l 31.46596,-39.51542 c 0,0 42.80834,63.29781 135.742662,65.12721 z"
         id="path4911-0-4-1-5" />
      <path
         style="fill:#46028d;fill-opacity:1;stroke-width:1.80537"
         d="M 104.0582,168.02533 C -33.641222,118.94349 -27.942812,62.240556 -27.942812,62.240556 l 47.00803,-18.48836 c 0,0 5.42419,76.221674 84.992982,124.273134 z"
         id="path4911-0-4-1-3-3" />
      <path
         style="fill:#46028d;fill-opacity:1;stroke-width:1.80537"
         d="M 104.0582,168.02533 C 9.3479081,56.669516 42.634348,10.412516 42.634348,10.412516 l 49.954337,7.49262 c 0,0 -33.413339,68.72201 11.469515,150.120194 z"
         id="path4911-0-4-1-3-9-5" />
    </g>
  </g>
</svg>
